<svg id="Pin" xmlns="http://www.w3.org/2000/svg" xmlns:xlink="http://www.w3.org/1999/xlink" width="316.65" height="240.76" viewBox="0 0 316.65 240.76">
  <defs>
    <style>
      .cls-1 {
        fill: none;
      }

      .cls-2 {
        fill: #072b67;
      }

      .cls-2, .cls-5, .cls-6, .cls-7 {
        stroke: #000;
        stroke-miterlimit: 10;
      }

      .cls-2, .cls-6, .cls-7 {
        stroke-width: 1.5px;
      }

      .cls-3 {
        opacity: 0.28;
      }

      .cls-4 {
        clip-path: url(#clip-path);
      }

      .cls-5 {
        stroke-width: 1.52px;
      }

      .cls-6 {
        fill: #469fc2;
      }

      .cls-7 {
        fill: #c2326b;
      }
    </style>
    <clipPath id="clip-path">
      <path class="cls-1" d="M157.76,208.09c2.3-10.21,4.3-23.2,7.31-33.22s8.56-19.53,16.67-26.14,20.47-10,30-5.64,15.66-6.25,2,21.93C198.81,195.67,169.83,201.13,157.76,208.09Z"/>
    </clipPath>
  </defs>
  <g>
    <ellipse class="cls-2" cx="158.33" cy="202.15" rx="150" ry="27.55"/>
    <g id="shadow" class="cls-3">
      <g class="cls-4">
        <ellipse class="cls-5" cx="158.33" cy="202.15" rx="150" ry="27.55"/>
      </g>
    </g>
    <path class="cls-6" d="M157.75,207.21c-13.2-20.9-28.86-41.07-40.56-62.85S98.86,97.47,101.36,72.88s17.42-51,40.63-59.47S190.67,20,202.23,49.28c14,35.35,3,71-8.62,97C182.13,171.88,174.69,184.77,157.75,207.21Z"/>
    <circle class="cls-7" cx="154.82" cy="61.89" r="18.19"/>
  </g>
</svg>
