<svg xmlns="http://www.w3.org/2000/svg" xmlns:xlink="http://www.w3.org/1999/xlink" width="370.61" height="427.95" viewBox="0 0 370.61 427.95">
  <defs>
    <style>
      .cls-1 {
        fill: none;
      }

      .cls-2 {
        fill: #e0e5e7;
      }

      .cls-3, .cls-8 {
        fill: #469fc2;
      }

      .cls-10, .cls-4 {
        fill: #072b67;
      }

      .cls-4, .cls-7, .cls-8, .cls-9 {
        stroke: #000;
        stroke-miterlimit: 10;
        stroke-width: 1.5px;
      }

      .cls-5 {
        opacity: 0.28;
      }

      .cls-6 {
        clip-path: url(#clip-path);
      }

      .cls-9 {
        fill: #c2326b;
      }

      .cls-10 {
        font-size: 48px;
        font-family: FiraSans-Regular, Fira Sans;
      }

      .cls-11 {
        letter-spacing: 0.01em;
      }

      .cls-12 {
        letter-spacing: 0em;
      }

      .cls-13 {
        letter-spacing: 0em;
      }

      .cls-14 {
        letter-spacing: 0.01em;
      }
    </style>
    <clipPath id="clip-path">
      <path class="cls-1" d="M184.74,316.71c2.3-10.21,4.3-23.21,7.32-33.23s8.55-19.52,16.66-26.14,20.47-10,30-5.64,15.65-6.24,2,21.94C225.79,304.28,196.81,309.75,184.74,316.71Z"/>
    </clipPath>
  </defs>
  <g id="hex_logo" data-name="hex logo">
    <g>
      <g>
        <polygon class="cls-2" points="2.81 319.34 2.81 108.61 185.31 3.25 367.8 108.61 367.8 319.34 185.31 424.7 2.81 319.34"/>
        <path class="cls-3" d="M185.31,6.49,365,110.23V317.71L185.31,421.46,5.62,317.71V110.23L185.31,6.49m0-6.49L0,107V321L185.31,428l185.3-107V107L185.31,0Z"/>
      </g>
      <g>
        <ellipse class="cls-4" cx="185.31" cy="310.77" rx="150" ry="27.55"/>
        <g id="shadow" class="cls-5">
          <g class="cls-6">
            <ellipse class="cls-7" cx="185.31" cy="310.77" rx="150" ry="27.55"/>
          </g>
        </g>
        <path class="cls-8" d="M184.73,315.83c-13.2-20.91-28.86-41.08-40.56-62.86s-18.32-46.89-15.83-71.48,17.42-51,40.63-59.47,48.68,6.63,60.24,35.87c14,35.35,3,71-8.62,97C209.11,280.49,201.68,293.39,184.73,315.83Z"/>
        <circle class="cls-9" cx="181.8" cy="170.5" r="18.19"/>
      </g>
      <text class="cls-10" transform="translate(85.54 106.38) scale(1 0.86)"><tspan class="cls-11">DeG</tspan><tspan class="cls-12" x="88.32" y="0">A</tspan><tspan x="115.68" y="0">U</tspan><tspan class="cls-13" x="147.46" y="0">S</tspan><tspan class="cls-14" x="173.38" y="0">S</tspan></text>
    </g>
  </g>
</svg>
